<?xml version="1.0" standalone="no"?><!DOCTYPE svg PUBLIC "-//W3C//DTD SVG 1.1//EN" "http://www.w3.org/Graphics/SVG/1.1/DTD/svg11.dtd"><svg t="1564643806867" class="icon" viewBox="0 0 1024 1024" version="1.1" xmlns="http://www.w3.org/2000/svg" p-id="4282" width="32" height="32" xmlns:xlink="http://www.w3.org/1999/xlink"><defs><style type="text/css"></style></defs><path d="M512 63.8C264.5 63.8 63.8 264.5 63.8 512c0 247.5 200.7 448.2 448.2 448.2 247.6 0 448.2-200.7 448.2-448.2C960.2 264.5 759.6 63.8 512 63.8zM512 857.7c-190.9 0-345.7-154.8-345.7-345.7S321.1 166.3 512 166.3c190.9 0 345.7 154.8 345.7 345.7S702.9 857.7 512 857.7zM688.8 374.5l-39.3-39.3c-10.9-10.9-28.4-10.9-39.3 0L512 433.4l-98.2-98.2c-10.9-10.9-28.4-10.9-39.3 0l-39.3 39.3c-10.9 10.9-10.9 28.4 0 39.3l98.2 98.2-98.2 98.2c-10.9 10.9-10.9 28.4 0 39.3l39.3 39.3c10.9 10.9 28.4 10.9 39.3 0l98.2-98.2 98.2 98.2c10.9 10.9 28.4 10.9 39.3 0l39.3-39.3c10.9-10.9 10.9-28.4 0-39.3L590.6 512l98.2-98.2C699.7 402.9 699.7 385.3 688.8 374.5z" p-id="4283"></path></svg>